<?xml version="1.0" encoding="UTF-8"?>
<svg width="119px" height="93px" viewBox="0 0 119 93" version="1.1" xmlns="http://www.w3.org/2000/svg" xmlns:xlink="http://www.w3.org/1999/xlink">
    <!-- Generator: Sketch 52.2 (67145) - http://www.bohemiancoding.com/sketch -->
    <title>Group 21</title>
    <desc>Created with Sketch.</desc>
    <g id="Website" stroke="none" stroke-width="1" fill="none" fill-rule="evenodd">
        <g id="Landingpage-Copy-4" transform="translate(-578.000000, -5583.000000)" fill-rule="nonzero">
            <g id="Group-21" transform="translate(578.000000, 5583.000000)">
                <circle id="Oval" fill="#FFF686" transform="translate(2.000000, 41.000000) scale(-1, -1) translate(-2.000000, -41.000000) " cx="2" cy="41" r="2"></circle>
                <circle id="Oval-Copy" fill="#FF6B7E" cx="116" cy="3" r="3"></circle>
                <g id="Group-10" transform="translate(13.000000, 18.000000)">
                    <g id="Group-Copy" transform="translate(38.846154, 0.000000)">
                        <polygon id="Path" fill="#3185FC" points="24.7090461 33.1950031 24.7090461 54.934764 62.103707 36.300813 62.103707 14.3796578"></polygon>
                        <polygon id="Path-2" fill="#2C77E1" points="-2.4158453e-13 20.7578333 -2.4158453e-13 42.7428854 24.7090461 54.934764 24.7090461 33.2218747"></polygon>
                        <polygon id="Path-3" fill="#61A2FF" points="-6.25277607e-13 20.7578333 36.6696699 2.30061381 62.103707 14.3796578 24.7090461 33.3033593"></polygon>
                        <ellipse id="Oval" fill="#3185FC" cx="12.2915255" cy="19.2933786" rx="4.72628205" ry="3.05316092"></ellipse>
                        <polygon id="Rectangle" fill="#3185FC" points="7.56477132 15.590609 17.0198731 15.590609 17.0198731 19.3810059 7.56477132 19.3452564"></polygon>
                        <ellipse id="Oval" fill="#61A2FF" cx="12.2915255" cy="15.6555698" rx="4.72628205" ry="3.05316092"></ellipse>
                        <ellipse id="Oval" fill="#3185FC" cx="24.8517819" cy="25.5296222" rx="4.72628205" ry="3.05316092"></ellipse>
                        <polygon id="Rectangle" fill="#3185FC" points="20.1264791 21.8268525 29.5733932 21.8268525 29.5733932 25.5901715 20.1264791 25.5901715"></polygon>
                        <ellipse id="Oval" fill="#61A2FF" cx="24.8517819" cy="21.8918134" rx="4.72628205" ry="3.05316092"></ellipse>
                        <ellipse id="Oval" fill="#3185FC" cx="24.8517819" cy="12.9272133" rx="4.72628205" ry="3.05316092"></ellipse>
                        <polygon id="Rectangle" fill="#3185FC" points="20.078786 9.22444363 29.6458283 9.22444363 29.6458283 13.0133158 20.078786 12.9877626"></polygon>
                        <ellipse id="Oval" fill="#61A2FF" cx="24.8517819" cy="9.2894045" rx="4.72628205" ry="3.05316092"></ellipse>
                        <ellipse id="Oval" fill="#3185FC" cx="37.2825511" cy="6.69096967" rx="4.72628205" ry="3.05316092"></ellipse>
                        <polygon id="Rectangle" fill="#3185FC" points="32.5512048 2.98820005 42.0080983 2.98820005 42.0080983 6.75151903 32.5512048 6.75151903"></polygon>
                        <ellipse id="Oval" fill="#61A2FF" cx="37.2825511" cy="3.05316092" rx="4.72628205" ry="3.05316092"></ellipse>
                        <ellipse id="Oval" fill="#3185FC" cx="37.2825511" cy="19.2933786" rx="4.72628205" ry="3.05316092"></ellipse>
                        <polygon id="Rectangle" fill="#3185FC" points="32.5598351 15.590609 42.0124756 15.590609 42.0124756 19.3539279 32.5598351 19.3539279"></polygon>
                        <ellipse id="Oval" fill="#61A2FF" cx="37.2825511" cy="15.6555698" rx="4.72628205" ry="3.05316092"></ellipse>
                        <ellipse id="Oval" fill="#3185FC" cx="49.7133204" cy="13.057135" rx="4.72628205" ry="3.05316092"></ellipse>
                        <polygon id="Rectangle" fill="#3185FC" points="44.9836934 9.35436537 54.4476319 9.35436537 54.4476319 13.1446362 44.9836934 13.1126932"></polygon>
                        <ellipse id="Oval" fill="#61A2FF" cx="49.7133204" cy="9.41932624" rx="4.72628205" ry="3.05316092"></ellipse>
                    </g>
                    <g id="Group-Copy-2" transform="translate(0.000000, 20.043103)">
                        <polygon id="Path" fill="#3185FC" points="24.7090461 33.1950031 24.7090461 54.934764 62.103707 36.300813 62.103707 14.3796578"></polygon>
                        <polygon id="Path-2" fill="#2C77E1" points="-2.4158453e-13 20.7578333 -2.4158453e-13 42.7428854 24.7090461 54.934764 24.7090461 33.2218747"></polygon>
                        <polygon id="Path-3" fill="#61A2FF" points="-6.25277607e-13 20.7578333 36.6696699 2.30061381 62.103707 14.3796578 24.7090461 33.3033593"></polygon>
                        <ellipse id="Oval" fill="#3185FC" cx="12.2915255" cy="19.2933786" rx="4.72628205" ry="3.05316092"></ellipse>
                        <polygon id="Rectangle" fill="#3185FC" points="7.56477132 15.590609 17.0198731 15.590609 17.0198731 19.3810059 7.56477132 19.3452564"></polygon>
                        <ellipse id="Oval" fill="#61A2FF" cx="12.2915255" cy="15.6555698" rx="4.72628205" ry="3.05316092"></ellipse>
                        <ellipse id="Oval" fill="#3185FC" cx="24.8517819" cy="25.5296222" rx="4.72628205" ry="3.05316092"></ellipse>
                        <polygon id="Rectangle" fill="#3185FC" points="20.1264791 21.8268525 29.5733932 21.8268525 29.5733932 25.5901715 20.1264791 25.5901715"></polygon>
                        <ellipse id="Oval" fill="#61A2FF" cx="24.8517819" cy="21.8918134" rx="4.72628205" ry="3.05316092"></ellipse>
                        <ellipse id="Oval" fill="#3185FC" cx="24.8517819" cy="12.9272133" rx="4.72628205" ry="3.05316092"></ellipse>
                        <polygon id="Rectangle" fill="#3185FC" points="20.078786 9.22444363 29.6458283 9.22444363 29.6458283 13.0133158 20.078786 12.9877626"></polygon>
                        <ellipse id="Oval" fill="#61A2FF" cx="24.8517819" cy="9.2894045" rx="4.72628205" ry="3.05316092"></ellipse>
                        <ellipse id="Oval" fill="#3185FC" cx="37.2825511" cy="6.69096967" rx="4.72628205" ry="3.05316092"></ellipse>
                        <polygon id="Rectangle" fill="#3185FC" points="32.5512048 2.98820005 42.0080983 2.98820005 42.0080983 6.75151903 32.5512048 6.75151903"></polygon>
                        <ellipse id="Oval" fill="#61A2FF" cx="37.2825511" cy="3.05316092" rx="4.72628205" ry="3.05316092"></ellipse>
                        <ellipse id="Oval" fill="#3185FC" cx="37.2825511" cy="19.2933786" rx="4.72628205" ry="3.05316092"></ellipse>
                        <polygon id="Rectangle" fill="#3185FC" points="32.5598351 15.590609 42.0124756 15.590609 42.0124756 19.3539279 32.5598351 19.3539279"></polygon>
                        <ellipse id="Oval" fill="#61A2FF" cx="37.2825511" cy="15.6555698" rx="4.72628205" ry="3.05316092"></ellipse>
                        <ellipse id="Oval" fill="#3185FC" cx="49.7133204" cy="13.057135" rx="4.72628205" ry="3.05316092"></ellipse>
                        <polygon id="Rectangle" fill="#3185FC" points="44.9836934 9.35436537 54.4476319 9.35436537 54.4476319 13.1446362 44.9836934 13.1126932"></polygon>
                        <ellipse id="Oval" fill="#61A2FF" cx="49.7133204" cy="9.41932624" rx="4.72628205" ry="3.05316092"></ellipse>
                    </g>
                </g>
                <polygon id="Star-Copy-2" fill="#BD10E0" points="91 91 88.1715729 91.8284271 89 89 88.1715729 86.1715729 91 87 93.8284271 86.1715729 93 89 93.8284271 91.8284271"></polygon>
            </g>
        </g>
    </g>
</svg>