<?xml version="1.0" encoding="UTF-8"?>
<svg width="276px" height="279px" viewBox="0 0 276 279" version="1.1" xmlns="http://www.w3.org/2000/svg" xmlns:xlink="http://www.w3.org/1999/xlink">
    <!-- Generator: Sketch 52.4 (67378) - http://www.bohemiancoding.com/sketch -->
    <title>Path 6</title>
    <desc>Created with Sketch.</desc>
    <g id="Website" stroke="none" stroke-width="1" fill="none" fill-rule="evenodd">
        <g id="Landingpage" transform="translate(-275.000000, -8056.000000)" fill="#3185FC" fill-rule="nonzero">
            <g id="Bitmap" transform="translate(275.000000, 8056.000000)">
                <path d="M-12.0392984,-23.0964334 L105.990764,29.9863021 C109.472775,31.5522988 113.247317,32.362018 117.065268,32.362018 L208.666732,32.362018 C219.906387,32.362018 229.970413,39.324976 233.933053,49.8429283 L273.522928,154.925506 C275.76842,160.885666 275.83462,167.447764 273.709829,173.452012 L235.03072,282.7517 C231.904198,291.586645 224.419854,298.168367 215.257758,300.140015 L23.4040037,341.426198 C8.82604354,344.563318 -5.53486671,335.288685 -8.67198715,320.710725 C-8.82808524,319.985349 -8.95421613,319.253847 -9.05005861,318.518081 L-49.8876053,5.01546582 C-51.8137619,-9.77129742 -41.3881804,-23.3197959 -26.6014171,-25.2459525 C-21.6419799,-25.8919798 -16.6005701,-25.1478156 -12.0392984,-23.0964334 Z" id="Path-6" transform="translate(112.569894, 158.281957) scale(1, -1) translate(-112.569894, -158.281957) "></path>
            </g>
        </g>
    </g>
</svg>