<?xml version="1.0" encoding="UTF-8"?>
<svg width="34px" height="28px" viewBox="0 0 34 28" version="1.1" xmlns="http://www.w3.org/2000/svg" xmlns:xlink="http://www.w3.org/1999/xlink">
    <!-- Generator: Sketch 52.2 (67145) - http://www.bohemiancoding.com/sketch -->
    <title>Group 16</title>
    <desc>Created with Sketch.</desc>
    <g id="Website" stroke="none" stroke-width="1" fill="none" fill-rule="evenodd" opacity="0.902855283">
        <g id="Landingpage-Copy-4" transform="translate(-1012.000000, -1287.000000)" fill-rule="nonzero">
            <g id="Group-16" transform="translate(1012.000000, 1287.000000)">
                <path d="M0.17685982,5.40841712 L2.63521055,19.0886782 C2.73191498,19.6268202 3.2465597,19.9846761 3.78470172,19.8879717 C3.79137834,19.8867719 3.79804245,19.8855035 3.80469299,19.8841667 L5.53717403,19.5359343 L6.17947914,23.8779149 L10.7539196,19.9664347 C11.3475432,19.4588432 11.6444673,18.6856552 11.5431823,17.911201 L11.0843325,14.4027045 C11.0380066,14.0484832 11.2819265,13.7216991 11.6346958,13.6653726 L27.1472256,11.1884925 C27.6871484,11.1022832 28.0549558,10.594703 27.9687465,10.0547802 C27.9675158,10.0470721 27.9661939,10.0393787 27.9647811,10.0317019 L26.2953681,0.959931744 C26.1974045,0.427586846 25.6900584,0.0726103753 25.156377,0.163010169 L0.985912209,4.25722262 C0.44682947,4.34853734 0.0838417724,4.85957545 0.175156494,5.39865819 C0.17570799,5.40191399 0.176275773,5.405167 0.17685982,5.40841712 Z" id="Path" fill="#0076FF"></path>
                <path d="M13.7468026,14.7594889 L31.1244182,12.0456987 C31.6609486,11.961911 32.1648322,12.3259586 32.2537953,12.8616552 L33.73455,21.778108 C33.8237512,22.3152384 33.4624571,22.823586 32.9258613,22.9159483 L27.337142,23.8779149 L27.5496915,27.9498422 L22.5335814,24.8219078 L15.3998105,25.8954657 C14.8591366,25.9768315 14.3548739,25.6044887 14.2735082,25.0638149 C14.2733596,25.0628274 14.2732124,25.0618397 14.2730668,25.0608517 L12.9201374,15.8819959 C12.840891,15.3443541 13.2098598,14.843341 13.7468026,14.7594889 Z" id="Path-2" fill="#132840"></path>
            </g>
        </g>
    </g>
</svg>