<?xml version="1.0" encoding="UTF-8"?>
<svg width="61px" height="29px" viewBox="0 0 61 29" version="1.1" xmlns="http://www.w3.org/2000/svg" xmlns:xlink="http://www.w3.org/1999/xlink">
    <!-- Generator: Sketch 52.2 (67145) - http://www.bohemiancoding.com/sketch -->
    <title>Group 3</title>
    <desc>Created with Sketch.</desc>
    <defs>
        <path d="M18.2852131,21.1183946 L17.0315379,21.7139414 C16.6833189,21.8793596 16.5251096,22.2880959 16.6712113,22.6448506 L16.9459889,23.3158088 C17.2478692,24.0529472 18.0669418,24.4327639 18.8246267,24.1869622 L20.5317151,23.6331632 L18.2852131,21.1183946 Z" id="path-1"></path>
        <path d="M5.1954727,0.974789916 L7.56496063,2.26445028 L12.0865069,0.143692328 L17.0492126,0.143692328 L27.9834372,12.1382961 C28.623039,13.2965821 28.7664143,14.124433 28.4135631,14.6218487 C27.8842863,15.3679724 27.4252138,15.4648232 26.1645282,15.5029674 C24.9038425,15.5411116 23.7749658,15.1780304 23.5109975,15.1780304 C23.2470291,15.1780304 24.1306981,15.5179985 24.3274694,16.0840336 C24.4586503,16.4613903 24.405492,16.7893651 24.1679947,17.0679579 C23.9181421,17.3963894 23.5860014,17.6349134 23.1715725,17.78353 C22.5499293,18.0064548 22.1669465,17.7772973 21.7197168,17.9459244 C21.4215637,18.0583425 21.2535403,18.2500372 21.2156466,18.5210084 C21.0089042,18.8347809 20.7019724,19.0471833 20.2948511,19.1582154 C19.6841691,19.3247636 19.6039841,18.9280153 18.8792007,19.1582154 C18.1544174,19.3884155 18.9156482,19.736952 17.6491862,19.9985111 C16.8048782,20.1728839 15.8586538,20.1728839 14.8105129,19.9985111 L9.96688729,19.1582154 L4.80816968,16.4727466 C3.95534594,15.5190286 3.34520114,14.8208301 2.97773527,14.3781513 C2.42653645,13.714133 1.57863847,12.9774181 1.28165128,12.8715591 C0.962409453,12.7577675 0.581787493,12.7577675 0.139785397,12.8715591" id="path-2"></path>
        <path d="M17.4194381,0.243697479 L15.5037232,1.09663866 C11.2665283,0.528290371 8.73313655,0.168517092 7.90354804,0.0173188192 C6.65916527,-0.20947859 2.99485362,2.17875632 2.44636295,3.08285517 C1.89787228,3.98695402 -0.889780982,8.06161652 0.502815729,8.39447807 C2.84690034,9.01680672 6.35928618,4.22346982 7.74166044,5.11223357 C8.66324329,5.70474273 12.0976631,8.43499604 18.0449199,13.3029935 C18.5394788,13.1343537 18.9330689,12.9101389 19.2256902,12.630349 C19.6646221,12.2106641 19.5505428,11.9534301 20.586821,11.6157471 C21.2776731,11.3906251 21.9653057,11.3026487 22.6497188,11.3518178 L20.342745,2.74362206 L17.4194381,0.243697479 Z" id="path-4"></path>
        <path d="M0.0511556723,3.41176471 L3.22344313,0.499232499 C3.53898399,0.209528953 4.00741037,0.161663989 4.37502349,0.381561173 L4.95114537,0.726183193 C5.59656991,1.11226038 5.80681249,1.94845775 5.4207353,2.5938823 C5.41649597,2.6009694 5.41219226,2.60801779 5.4078247,2.6150266 C4.22212631,4.51777032 3.67129921,5.51918719 3.75534468,5.619278 C3.8480727,5.72970897 4.7227661,4.75385448 6.37942489,2.69171453 L6.37940261,2.69169663 C6.60807116,2.40705954 7.01255003,2.33651802 7.32407034,2.52694565 L7.93313291,2.89925636 C8.58751998,3.29927324 8.84166798,4.12394803 8.52596869,4.8229258 C7.85718658,6.30368943 7.57400623,7.07865814 7.67644214,7.14783846 C7.79537999,7.2281634 8.44305286,6.36297528 9.61946075,4.55227411 L9.61942377,4.55225008 C9.76506792,4.32807781 10.0648634,4.26441819 10.2890356,4.41006234 C10.2899963,4.41068648 10.2909547,4.41131404 10.291911,4.41194499 L11.2651113,5.05410322 C11.7784954,5.39285555 12.0227447,6.01832187 11.8747836,6.61533442 L11.382582,8.60133376 C10.5654189,8.9342464 9.86043439,9.03978818 9.26762833,8.9179591 C8.67482227,8.79613002 8.26058995,8.46057514 8.02493137,7.91129446 C7.74706229,8.32620059 7.42558151,8.55621369 7.06048905,8.60133376 C6.69539659,8.64645384 5.68870592,8.33834152 4.04041703,7.67699681 C4.00671881,7.39047578 3.93262069,7.21408966 3.81812267,7.14783846 C3.70362466,7.08158726 3.51566501,7.1063407 3.25424373,7.22209877 C2.13765048,6.95638586 1.2880344,6.53994292 0.705395482,5.97276993 C0.122756564,5.40559694 -0.0953233728,4.55192853 0.0511556723,3.41176471 Z" id="path-6"></path>
    </defs>
    <g id="Website" stroke="none" stroke-width="1" fill="none" fill-rule="evenodd">
        <g id="Landingpage-Copy-4" transform="translate(-688.000000, -7669.000000)">
            <g id="Group-3" transform="translate(688.000000, 7669.000000)">
                <g id="Path-55" fill-rule="nonzero">
                    <use fill="#3185FC" xlink:href="#path-1"></use>
                    <use fill-opacity="0.09" fill="#000000" xlink:href="#path-1"></use>
                </g>
                <g id="Path-53" transform="translate(16.330709, 8.042017)">
                    <mask id="mask-3" fill="white">
                        <use xlink:href="#path-2"></use>
                    </mask>
                    <use id="Mask" fill="#8DBBFB" fill-rule="nonzero" xlink:href="#path-2"></use>
                    <path d="M5.80639601,0.974789916 C5.96026438,3.44908494 5.96026438,5.30842571 5.80639601,6.55281223 C5.57559344,8.419392 4.66133478,8.32188561 4.66133478,10.2352941 C4.66133478,12.1487026 12.2158147,14.2156615 14.4449692,14.6218487 C16.6741237,15.028036 17.7232318,13.6484521 19.5767701,12.9531225 C21.4303084,12.2577929 21.9233595,12.2672921 22.9382138,11.3687804 C23.6147832,10.7697726 23.9297817,9.88029827 23.883209,8.70035735 L29.5001161,10.5097866 L29.1971487,18.7647059 L17.0807254,23.0328077 L2.10027467,19.2670846 L-2.25791367,13.4248839 L4.51409385,0.974789916 L5.80639601,0.974789916 Z" id="Path-52" fill-opacity="0.0911458333" fill="#000000" fill-rule="nonzero" mask="url(#mask-3)"></path>
                    <path d="M10.9378859,6.59792668 C10.6404956,7.09909148 11.2211343,9.13897536 13.0778515,8.98741627 C14.9345686,8.83585718 15.9632971,6.58169791 17.1305294,6.09243697 C18.2977617,5.60317604 20.1695055,6.53789567 20.690172,6.09243697 C21.2108386,5.64697828 21.7142948,4.51696225 19.1163417,4.39346608 C16.5183886,4.26996991 13.9479453,5.13698457 12.6118537,5.70842643 C11.2757621,6.27986828 11.2352762,6.09676188 10.9378859,6.59792668 Z" fill-opacity="0.0911458333" fill="#000000" fill-rule="nonzero" mask="url(#mask-3)"></path>
                </g>
                <g id="Group-2" transform="translate(26.657480, 1.218487)">
                    <g id="Path-50" transform="translate(0.000000, 6.336134)">
                        <mask id="mask-5" fill="white">
                            <use xlink:href="#path-4"></use>
                        </mask>
                        <use id="Mask" fill="#3185FC" fill-rule="nonzero" xlink:href="#path-4"></use>
                        <path d="M13.7039564,6.48723531 C15.3517719,6.78561708 17.0042022,5.63074409 17.5881066,5.36134454 C18.172011,5.09194499 16.7850674,7.70437796 16.4315399,8.04201681 C16.0780124,8.37965566 15.3409837,7.97164994 14.3957577,8.41021912 C13.765607,8.70259857 13.3937033,9.06727801 13.2800465,9.50425744 L-0.416275165,9.01680672 L-0.0078574091,8.41021912 C1.12363647,7.69034303 2.3414407,6.95903647 3.64555527,6.21629944 C5.60172713,5.1021939 5.91742188,3.79018877 7.03752026,3.79018877 C8.15761864,3.79018877 12.056141,6.18885353 13.7039564,6.48723531 Z" fill-opacity="0.0911458333" fill="#000000" fill-rule="nonzero" mask="url(#mask-5)"></path>
                        <polygon id="Path" fill-opacity="0.0911458333" fill="#000000" fill-rule="nonzero" mask="url(#mask-5)" points="17.5221202 -0.840177646 17.173589 2.33874059 21.2169771 10.4428121 23.4811032 11.8492525 21.2169771 1.32185245"></polygon>
                    </g>
                    <path d="M26.7249544,17.3101447 L22.6571234,18.7488723 C22.1030496,16.5820067 21.3664943,14.4633634 20.4474575,12.3929424 C19.5284207,10.3225213 18.464409,8.38481787 17.2554222,6.57983193 L20.8715348,5.11764706 L26.1501072,11.697479 L26.7249544,17.3101447 Z" id="Path-48" fill="#F3F5F8" fill-rule="nonzero"></path>
                    <g id="Group" transform="translate(20.173228, 0.000000)" fill-rule="nonzero">
                        <path d="M5.33886199,17.7390795 C5.64335216,17.6393486 5.87415813,17.4928949 6.03127988,17.2997184 C6.18840163,17.1065419 6.34941765,16.8155035 6.51432795,16.4266033 L7.28638906,19.3188426 L5.95014814,19.0838102 L5.33886199,17.7390795 Z" id="Path-47" fill="#071220"></path>
                        <path d="M7.25280147,20.4011251 C6.57105096,20.195979 5.95756121,19.8350897 5.41233224,19.3184571 C4.86663235,18.8013782 4.64351089,18.3380207 4.74296784,17.9283844 L5.4933673,17.697992 C5.43584733,17.7863177 5.57174287,17.9999805 5.90105392,18.3389806 C6.22996072,18.6775646 6.56648822,18.876493 6.91063643,18.935766 C6.03062701,15.2970364 5.10857258,12.47508 4.14447312,10.4698968 C3.04796525,8.18932375 1.71708673,6.40524051 0.151837569,5.11764706 L8.96578449,7.10542736e-15 C10.88819,2.5071107 12.2895393,5.35024795 13.1698325,8.52941176 C14.0501256,11.7085756 14.307904,14.8573499 13.9431675,17.9757349 L7.27083601,20.481202 C7.26482651,20.4544706 7.258815,20.4277783 7.25280147,20.4011251 Z M7.19927761,20.1651621 L6.95246013,19.1094488 C7.03510457,19.4541277 7.11737706,19.8060321 7.19927761,20.1651621 Z" id="Combined-Shape" fill="#132840"></path>
                    </g>
                </g>
                <path d="M11.8429721,18.884887 L16.4696601,20.9052624 C18.1961959,17.9041955 19.3952862,15.5660268 20.0669309,13.8907563 C20.7385756,12.2154858 21.2096661,10.3877547 21.4802024,8.40756303 L16.4696601,5.8487395 L10.8950631,14.8655462 L11.8429721,18.884887 Z" id="Path-51" fill="#F3F5F8" fill-rule="nonzero"></path>
                <path d="M6.3055298,0 C4.16801867,2.04037607 2.56138789,4.79023191 1.48563745,8.24956751 C0.40988701,11.7089031 -0.033337497,15.5508525 0.155963931,19.7754157 L8.77025612,23.0366166 C9.31960247,23.2445883 9.93896465,23.0279786 10.2389592,22.5229668 C12.1957745,19.2288568 13.673478,16.4326858 14.6720697,14.1344538 C15.6437038,11.8982639 16.4300294,9.51604154 17.0310465,6.98778672 L17.0310574,6.98778933 C17.1563298,6.46081526 16.9161236,5.91478546 16.4430075,5.65105088 L6.3055298,0 Z" id="Path-49" fill="#4E72A5" fill-rule="nonzero"></path>
                <g id="Path-56" transform="translate(21.133858, 19.983193)">
                    <mask id="mask-7" fill="white">
                        <use xlink:href="#path-6"></use>
                    </mask>
                    <use id="Mask" fill="#3185FC" fill-rule="nonzero" xlink:href="#path-6"></use>
                    <path d="M1.26077904,4.53716133 C2.08620226,5.05605851 2.5128418,5.39587239 3.2730634,5.39587239 C4.033285,5.39587239 4.18870879,4.42625163 4.64988954,4.53716133 C5.11107029,4.64807102 4.38511241,5.2859523 5.01932505,5.81583214 C5.65353769,6.34571198 6.41971243,6.38771598 7.09475989,6.57983193 C7.76980735,6.77194788 7.87311651,6.58277005 8.56012155,6.82352941 C9.24712659,7.06428878 8.85445617,7.31590563 9.72346369,7.50105524 C10.5924712,7.68620485 10.8925288,6.55065887 11.7401176,7.50105524 C12.5877064,8.45145161 13.9224417,9.34800381 12.1300484,10.1995447 C10.3376552,11.0510856 9.28410099,11.7052247 5.5450242,10.4442573 C1.8059474,9.18328998 0.511372421,7.10855257 -0.351899057,5.99012916 C-1.21517054,4.87170575 -0.152018067,3.65404333 0.116891829,3.41176471 C0.385801724,3.16948608 0.435355823,4.01826414 1.26077904,4.53716133 Z" fill-opacity="0.0911458333" fill="#000000" fill-rule="nonzero" mask="url(#mask-7)"></path>
                </g>
            </g>
        </g>
    </g>
</svg>