<?xml version="1.0" encoding="UTF-8"?>
<svg width="27px" height="27px" viewBox="0 0 27 27" version="1.1" xmlns="http://www.w3.org/2000/svg" xmlns:xlink="http://www.w3.org/1999/xlink">
    <!-- Generator: Sketch 52.2 (67145) - http://www.bohemiancoding.com/sketch -->
    <title>facebook-black</title>
    <desc>Created with Sketch.</desc>
    <g id="Website" stroke="none" stroke-width="1" fill="none" fill-rule="evenodd">
        <g id="Landingpage-Copy-4" transform="translate(-1162.000000, -9838.000000)" fill="#000000">
            <g id="facebook-black" transform="translate(1162.000000, 9838.000000)">
                <path d="M14.4215747,27 L1.490193,27 C0.666941063,27 0,26.3326455 0,25.5097142 L0,1.49018119 C0,0.667040625 0.667045687,0 1.490193,0 L25.5099122,0 C26.3328497,0 27,0.667040625 27,1.49018119 L27,25.5097142 C27,26.3327501 26.3327451,27 25.5099122,27 L18.6296091,27 L18.6296091,16.5441122 L22.1391681,16.5441122 L22.6646747,12.4692671 L18.6296091,12.4692671 L18.6296091,9.86773556 C18.6296091,8.68797394 18.957213,7.88400562 20.6489756,7.88400562 L22.8067374,7.88306231 L22.8067374,4.23848869 C22.4335609,4.1888295 21.152691,4.07788313 19.662498,4.07788313 C16.5514691,4.07788313 14.4215747,5.97685838 14.4215747,9.46418006 L14.4215747,12.4692671 L10.9030061,12.4692671 L10.9030061,16.5441122 L14.4215747,16.5441122 L14.4215747,27 Z" id="Facebook"></path>
            </g>
        </g>
    </g>
</svg>