<svg xmlns="http://www.w3.org/2000/svg" xmlns:xlink="http://www.w3.org/1999/xlink" width="37" height="28" viewBox="0 0 37 28">
    <defs>
        <ellipse id="a" cx="9.662" cy="10.07" rx="9.662" ry="10.07"/>
    </defs>
    <g fill="none" fill-rule="evenodd">
        <path fill="#2B384A" fill-rule="nonzero" d="M36.83 14.044c-5.053 9.22-10.913 13.83-17.578 13.83-6.666 0-13.024-4.585-19.075-13.754C5.255 4.849 11.317.214 18.367.214c7.048 0 13.202 4.61 18.462 13.83zM18.617 26.526c6.638 0 12.019-5.608 12.019-12.526S25.256 1.474 18.617 1.474C11.98 1.474 6.6 7.082 6.6 14s5.38 12.526 12.019 12.526z"/>
        <g transform="translate(8.955 3.93)">
            <mask id="b" fill="#fff">
                <use xlink:href="#a"/>
            </mask>
            <use fill="#D8D8D8" fill-rule="nonzero" xlink:href="#a"/>
            <path fill="#3185FC" fill-rule="nonzero" d="M9.545 0l.304 20.222-6.757-.097-.657-2.552L16.623 2.835 15.593 0l-4.47-.982z" mask="url(#b)"/>
            <path fill="#315EFC" fill-rule="nonzero" d="M2.779 3.002l14.374 14.576-3.154 3.3-4.139.245L9.545-.712 4.53 0z" mask="url(#b)"/>
            <path fill="#313FFC" fill-rule="nonzero" d="M-.868 10.193l21.125-.264-.526 5.34-2.654 2.336L1.862 1.965.044 5.509z" mask="url(#b)"/>
            <path fill="#689DE7" fill-rule="nonzero" d="M-1.35 10.173h13.534l8.668-.272-3.264-8.404-9.046 9.775-6.826 7.134z" mask="url(#b)"/>
        </g>
        <ellipse cx="18.5" cy="14.123" fill="#132840" fill-rule="nonzero" rx="3.417" ry="3.561"/>
        <ellipse cx="20.975" cy="11.298" fill="#FFF" fill-rule="nonzero" rx="1.414" ry="1.474"/>
    </g>
</svg>
