<?xml version="1.0" encoding="UTF-8"?>
<svg width="509px" height="132px" viewBox="0 0 509 132" version="1.1" xmlns="http://www.w3.org/2000/svg" xmlns:xlink="http://www.w3.org/1999/xlink">
    <!-- Generator: Sketch 52.2 (67145) - http://www.bohemiancoding.com/sketch -->
    <title>Logo</title>
    <desc>Created with Sketch.</desc>
    <g id="Logo" stroke="none" stroke-width="1" fill="none" fill-rule="evenodd">
        <path d="M255.738281,83.390625 C255.162758,89.854199 253.358739,95.5650794 250.326172,100.523438 C247.293605,105.481796 243.03258,109.355455 237.542969,112.144531 C232.053358,114.933608 225.45707,116.328125 217.753906,116.328125 C209.829387,116.328125 202.923207,114.457701 197.035156,110.716797 C191.147106,106.975893 186.609391,101.652378 183.421875,94.7460938 C180.234359,87.8398092 178.640625,79.7604629 178.640625,70.5078125 L178.640625,62.8710938 C178.640625,53.6184433 180.267562,45.539097 183.521484,38.6328125 C186.775407,31.726528 191.401663,26.3919459 197.400391,22.6289062 C203.399119,18.8658666 210.404908,16.984375 218.417969,16.984375 C225.988319,16.984375 232.451796,18.3899599 237.808594,21.2011719 C243.165391,24.0123838 247.337876,27.9303134 250.326172,32.9550781 C253.314468,37.9798428 255.140622,43.7903316 255.804688,50.3867188 L238.671875,50.3867188 C237.919267,43.9231448 236.004573,39.0644694 232.927734,35.8105469 C229.850896,32.5566244 225.014356,30.9296875 218.417969,30.9296875 C211.024703,30.9296875 205.435566,33.6633841 201.650391,39.1308594 C197.865215,44.5983346 195.972656,52.4673966 195.972656,62.7382812 L195.972656,70.5078125 C195.972656,80.601613 197.732404,88.4374721 201.251953,94.015625 C204.771502,99.5937779 210.272098,102.382812 217.753906,102.382812 C222.358096,102.382812 226.110012,101.663419 229.009766,100.224609 C231.90952,98.7858001 234.100904,96.6829565 235.583984,93.9160156 C237.067065,91.1490747 238.074216,87.6406463 238.605469,83.390625 L255.738281,83.390625 Z M325.929688,98.265625 C325.929688,104.817741 326.837231,110.019512 328.652344,113.871094 L328.652344,115 L311.785156,115 C311.076819,113.450513 310.457034,111.214858 309.925781,108.292969 C307.667957,110.727877 304.967464,112.675774 301.824219,114.136719 C298.680974,115.597664 295.117207,116.328125 291.132812,116.328125 C286.440081,116.328125 282.234394,115.398447 278.515625,113.539062 C274.796856,111.679678 271.897146,109.111996 269.816406,105.835938 C267.735667,102.559879 266.695312,98.885437 266.695312,94.8125 C266.695312,87.1536075 269.539685,81.2877808 275.228516,77.2148438 C280.917346,73.1419067 288.985625,71.1054688 299.433594,71.1054688 L309.394531,71.1054688 L309.394531,66.4570312 C309.394531,62.6497205 308.354177,59.6725368 306.273438,57.5253906 C304.192698,55.3782445 301.115906,54.3046875 297.042969,54.3046875 C294.608061,54.3046875 292.460947,54.7252562 290.601562,55.5664062 C288.742178,56.4075563 287.303391,57.5585864 286.285156,59.0195312 C285.266922,60.4804761 284.757812,62.1184805 284.757812,63.9335938 L268.222656,63.9335938 C268.222656,60.082012 269.45116,56.4629076 271.908203,53.0761719 C274.365247,49.6894362 277.862608,46.9668072 282.400391,44.9082031 C286.938174,42.8495991 292.128877,41.8203125 297.972656,41.8203125 C303.462267,41.8203125 308.309875,42.7499907 312.515625,44.609375 C316.721375,46.4687593 320.008452,49.2577939 322.376953,52.9765625 C324.745455,56.6953311 325.929688,61.2330461 325.929688,66.5898438 L325.929688,98.265625 Z M294.320312,103.113281 C297.773455,103.113281 300.839179,102.294279 303.517578,100.65625 C306.195977,99.018221 308.154942,97.0481886 309.394531,94.7460938 L309.394531,81.3320312 L300.761719,81.3320312 C295.006482,81.3320312 290.645848,82.3723854 287.679688,84.453125 C284.713527,86.5338646 283.230469,89.4557104 283.230469,93.21875 C283.230469,96.1406396 284.204417,98.5201731 286.152344,100.357422 C288.10027,102.194671 290.822899,103.113281 294.320312,103.113281 Z M343.59375,115 L343.59375,13 L360.128906,13 L360.128906,115 L343.59375,115 Z M435.101562,43.1484375 L410.265625,115 L395.722656,115 L370.753906,43.1484375 L387.886719,43.1484375 L403.09375,94.0820312 L417.96875,43.1484375 L435.101562,43.1484375 Z M442.007812,78.4101562 C442.007812,71.4153296 443.346992,65.1510693 446.025391,59.6171875 C448.703789,54.0833057 452.566381,49.7337398 457.613281,46.5683594 C462.660181,43.402979 468.592414,41.8203125 475.410156,41.8203125 C482.316441,41.8203125 488.304011,43.402979 493.373047,46.5683594 C498.442083,49.7337398 502.315742,54.0833057 504.994141,59.6171875 C507.672539,65.1510693 509.011719,71.4153296 509.011719,78.4101562 L509.011719,79.8046875 C509.011719,86.7995141 507.672539,93.0637744 504.994141,98.5976562 C502.315742,104.131538 498.45315,108.470036 493.40625,111.613281 C488.35935,114.756526 482.404982,116.328125 475.542969,116.328125 C468.680955,116.328125 462.71552,114.756526 457.646484,111.613281 C452.577449,108.470036 448.703789,104.131538 446.025391,98.5976562 C443.346992,93.0637744 442.007812,86.7995141 442.007812,79.8046875 L442.007812,78.4101562 Z M458.542969,79.8046875 C458.542969,86.6224299 459.959621,92.2004991 462.792969,96.5390625 C465.626316,100.877626 469.876274,103.046875 475.542969,103.046875 C479.306008,103.046875 482.460274,102.017588 485.005859,99.9589844 C487.551445,97.9003803 489.432937,95.1224133 490.650391,91.625 C491.867845,88.1275867 492.476562,84.1875219 492.476562,79.8046875 L492.476562,78.4101562 C492.476562,74.0715929 491.867845,70.1425957 490.650391,66.6230469 C489.432937,63.103498 487.540377,60.3033958 484.972656,58.2226562 C482.404935,56.1419167 479.217467,55.1015625 475.410156,55.1015625 C471.647117,55.1015625 468.503919,56.1419167 465.980469,58.2226562 C463.457019,60.3033958 461.586595,63.103498 460.369141,66.6230469 C459.151687,70.1425957 458.542969,74.0715929 458.542969,78.4101562 L458.542969,79.8046875 Z" id="Calvo" fill="#000000"></path>
        <rect id="Rectangle-Copy" fill="#132840" fill-rule="nonzero" opacity="0.85" x="0" y="0" width="112" height="112" rx="9"></rect>
        <rect id="Rectangle" fill="#3185FC" fill-rule="nonzero" opacity="0.853166853" transform="translate(76.000000, 76.000000) rotate(-270.000000) translate(-76.000000, -76.000000) " x="20" y="20" width="112" height="112" rx="9"></rect>
    </g>
</svg>