<?xml version="1.0" encoding="UTF-8"?>
<svg width="18px" height="18px" viewBox="0 0 18 18" version="1.1" xmlns="http://www.w3.org/2000/svg" xmlns:xlink="http://www.w3.org/1999/xlink">
    <!-- Generator: Sketch 52.2 (67145) - http://www.bohemiancoding.com/sketch -->
    <title>call-phone-telephone-1</title>
    <desc>Created with Sketch.</desc>
    <g id="Website" stroke="none" stroke-width="1" fill="none" fill-rule="evenodd" opacity="0.62">
        <g id="Landingpage-Copy-4" transform="translate(-1092.000000, -70.000000)" fill="#132840">
            <g id="call-phone-telephone-1" transform="translate(1092.000000, 70.000000)">
                <path d="M16.6,11.8 C15.5,11.8 14.4,11.6 13.4,11.3 C12.9,11.1 12.4,11.3 12,11.6 L10,13.1 C7.8,12 6.1,10.3 5,8.1 L6.5,6.1 C6.9,5.7 7,5.1 6.9,4.6 C6.6,3.6 6.4,2.5 6.4,1.4 C6.3,0.6 5.6,0 4.8,0 C4.8,0 4.8,0 4.7,0 L1.4,0 C0.6,0 0,0.6 0,1.4 C0,10.6 7.4,18 16.6,18 C17.4,18 18,17.4 18,16.6 L18,13.3 C18,12.5 17.4,11.8 16.6,11.8 Z" id="Path"></path>
            </g>
        </g>
    </g>
</svg>