<?xml version="1.0" encoding="UTF-8"?>
<svg width="18px" height="18px" viewBox="0 0 18 18" version="1.1" xmlns="http://www.w3.org/2000/svg" xmlns:xlink="http://www.w3.org/1999/xlink">
    <!-- Generator: Sketch 52.2 (67145) - http://www.bohemiancoding.com/sketch -->
    <title>circle-add</title>
    <desc>Created with Sketch.</desc>
    <g id="Website" stroke="none" stroke-width="1" fill="none" fill-rule="evenodd" fill-opacity="0.495782382">
        <g id="Landingpage-Copy-4" transform="translate(-1219.000000, -9061.000000)" fill="#132840" fill-rule="nonzero">
            <g id="circle-add" transform="translate(1219.000000, 9061.000000)">
                <path d="M9,0 C4.02954545,0 0,4.02934091 0,9 C0,13.9706591 4.02954545,18 9,18 C13.9704545,18 18,13.9706591 18,9 C18,4.02934091 13.9704545,0 9,0 Z M9,16.3636364 C4.93322727,16.3636364 1.63636364,13.0667727 1.63636364,9 C1.63636364,4.93322727 4.93322727,1.63636364 9,1.63636364 C13.0667727,1.63636364 16.3636364,4.93322727 16.3636364,9 C16.3636364,13.0667727 13.0667727,16.3636364 9,16.3636364 Z M12.2727273,8.18181818 L9.81818182,8.18181818 L9.81818182,5.72727273 C9.81818182,5.27543182 9.45184091,4.90909091 9,4.90909091 C8.54815909,4.90909091 8.18181818,5.27543182 8.18181818,5.72727273 L8.18181818,8.18181818 L5.72727273,8.18181818 C5.27543182,8.18181818 4.90909091,8.54815909 4.90909091,9 C4.90909091,9.45184091 5.27543182,9.81818182 5.72727273,9.81818182 L8.18181818,9.81818182 L8.18181818,12.2727273 C8.18181818,12.7245682 8.54815909,13.0909091 9,13.0909091 C9.45184091,13.0909091 9.81818182,12.7245682 9.81818182,12.2727273 L9.81818182,9.81818182 L12.2727273,9.81818182 C12.7245682,9.81818182 13.0909091,9.45184091 13.0909091,9 C13.0909091,8.54815909 12.7245682,8.18181818 12.2727273,8.18181818 Z" id="Shape"></path>
            </g>
        </g>
    </g>
</svg>