<?xml version="1.0" encoding="UTF-8"?>
<svg width="114px" height="90px" viewBox="0 0 114 90" version="1.1" xmlns="http://www.w3.org/2000/svg" xmlns:xlink="http://www.w3.org/1999/xlink">
    <!-- Generator: Sketch 52.2 (67145) - http://www.bohemiancoding.com/sketch -->
    <title>Group 22</title>
    <desc>Created with Sketch.</desc>
    <g id="Website" stroke="none" stroke-width="1" fill="none" fill-rule="evenodd">
        <g id="Landingpage-Copy-4" transform="translate(-1011.000000, -5596.000000)" fill-rule="nonzero">
            <g id="Group-22" transform="translate(1011.000000, 5596.000000)">
                <polygon id="Star-Copy-4" fill="#FF6477" points="2.5 45.75 0.732233047 46.267767 1.25 44.5 0.732233047 42.732233 2.5 43.25 4.26776695 42.732233 3.75 44.5 4.26776695 46.267767"></polygon>
                <polygon id="Star-Copy-2" fill="#BD10E0" points="98 82 95.1715729 82.8284271 96 80 95.1715729 77.1715729 98 78 100.828427 77.1715729 100 80 100.828427 82.8284271"></polygon>
                <circle id="Oval" fill="#FFF686" transform="translate(98.000000, 2.000000) scale(-1, -1) translate(-98.000000, -2.000000) " cx="98" cy="2" r="2"></circle>
                <g id="Group-11" transform="translate(13.000000, 4.000000)">
                    <polygon id="Path" fill="#3185FC" points="64.0352225 43.6535343 63.9240506 65.4626866 101 46.8849154 101 24.8368076"></polygon>
                    <polygon id="Path-2" fill="#2C77E1" points="39.6329114 31.1754809 39.6329114 53.3285998 63.9240506 65.4626866 64.0534071 43.6394113"></polygon>
                    <polygon id="Path-3" fill="#61A2FF" points="39.6329114 31.1758919 75.8676386 12.8358209 101 24.8381988 64.048881 43.641791"></polygon>
                    <ellipse id="Oval" fill="#3185FC" cx="52.0981013" cy="29.8432836" rx="4.7943038" ry="2.8880597"></ellipse>
                    <polygon id="Rectangle" fill="#3185FC" points="47.3037975 26.3134328 56.8924051 26.3134328 56.8924051 30.1641791 47.3037975 30.1278604"></polygon>
                    <ellipse id="Oval" fill="#61A2FF" cx="52.0981013" cy="25.9925373" rx="4.7943038" ry="2.8880597"></ellipse>
                    <ellipse id="Oval" fill="#3185FC" cx="64.2436709" cy="35.619403" rx="4.7943038" ry="2.8880597"></ellipse>
                    <polygon id="Rectangle" fill="#3185FC" points="59.4493671 32.0895522 69.0379747 32.0895522 69.0379747 35.9402985 59.4493671 35.9402985"></polygon>
                    <ellipse id="Oval" fill="#61A2FF" cx="64.2436709" cy="32.4104478" rx="4.7943038" ry="2.8880597"></ellipse>
                    <ellipse id="Oval" fill="#3185FC" cx="64.2436709" cy="23.4253731" rx="4.7943038" ry="2.8880597"></ellipse>
                    <polygon id="Rectangle" fill="#3185FC" points="59.4493671 19.8955224 69.0379747 19.8955224 69.0379747 23.7462687 59.4493671 23.7202982"></polygon>
                    <ellipse id="Oval" fill="#61A2FF" cx="64.2436709" cy="19.5746269" rx="4.7943038" ry="2.8880597"></ellipse>
                    <ellipse id="Oval" fill="#3185FC" cx="76.3892405" cy="17.0074627" rx="4.7943038" ry="2.8880597"></ellipse>
                    <polygon id="Rectangle" fill="#3185FC" points="71.5949367 13.4776119 81.1835443 13.4776119 81.1835443 17.3283582 71.5949367 17.3283582"></polygon>
                    <ellipse id="Oval" fill="#61A2FF" cx="76.3892405" cy="13.7985075" rx="4.7943038" ry="2.8880597"></ellipse>
                    <ellipse id="Oval" fill="#3185FC" cx="76.3892405" cy="29.8432836" rx="4.7943038" ry="2.8880597"></ellipse>
                    <polygon id="Rectangle" fill="#3185FC" points="71.5949367 26.3134328 81.1835443 26.3134328 81.1835443 30.1641791 71.5949367 30.1641791"></polygon>
                    <ellipse id="Oval" fill="#61A2FF" cx="76.3892405" cy="25.9925373" rx="4.7943038" ry="2.8880597"></ellipse>
                    <ellipse id="Oval" fill="#3185FC" cx="89.1740506" cy="23.4253731" rx="4.7943038" ry="2.8880597"></ellipse>
                    <polygon id="Rectangle" fill="#3185FC" points="84.3797468 19.8955224 93.9683544 19.8955224 93.9683544 23.7462687 84.3797468 23.713816"></polygon>
                    <ellipse id="Oval" fill="#61A2FF" cx="89.1740506" cy="20.2164179" rx="4.7943038" ry="2.8880597"></ellipse>
                    <g id="Group-9" transform="translate(0.000000, 31.447761)">
                        <polygon id="Path" fill="#3185FC" points="24.2911392 32.6950185 24.2911392 54.5522388 61.3670886 35.9744677 61.3670886 13.9388115"></polygon>
                        <polygon id="Path-2" fill="#2C77E1" points="-3.90798505e-13 20.2357311 -3.90798505e-13 42.4181521 24.2911392 54.5522388 24.2911392 32.6512525"></polygon>
                        <polygon id="Path-3" fill="#61A2FF" points="0 20.2654441 36.2347272 1.92537313 61.3670886 13.9277511 24.4159696 32.7313433"></polygon>
                        <ellipse id="Oval" fill="#3185FC" cx="11.8259494" cy="18.9328358" rx="4.7943038" ry="2.8880597"></ellipse>
                        <polygon id="Rectangle" fill="#3185FC" points="7.03164557 15.4029851 16.6202532 15.4029851 16.6202532 19.2537313 7.03164557 19.2174126"></polygon>
                        <ellipse id="Oval" fill="#61A2FF" cx="11.8259494" cy="15.0820896" rx="4.7943038" ry="2.8880597"></ellipse>
                        <ellipse id="Oval" fill="#3185FC" cx="24.6107595" cy="24.7089552" rx="4.7943038" ry="2.8880597"></ellipse>
                        <polygon id="Rectangle" fill="#3185FC" points="19.8164557 21.1791045 29.4050633 21.1791045 29.4050633 25.0298507 19.8164557 25.0298507"></polygon>
                        <ellipse id="Oval" fill="#61A2FF" cx="24.6107595" cy="21.5" rx="4.7943038" ry="2.8880597"></ellipse>
                        <ellipse id="Oval" fill="#3185FC" cx="24.6107595" cy="12.5149254" rx="4.7943038" ry="2.8880597"></ellipse>
                        <polygon id="Rectangle" fill="#3185FC" points="19.8164557 8.98507463 29.4050633 8.98507463 29.4050633 12.8358209 19.8164557 12.8098504"></polygon>
                        <ellipse id="Oval" fill="#61A2FF" cx="24.6107595" cy="8.6641791" rx="4.7943038" ry="2.8880597"></ellipse>
                        <ellipse id="Oval" fill="#3185FC" cx="36.7563291" cy="6.09701493" rx="4.7943038" ry="2.8880597"></ellipse>
                        <polygon id="Rectangle" fill="#3185FC" points="31.9620253 2.56716418 41.5506329 2.56716418 41.5506329 6.41791045 31.9620253 6.41791045"></polygon>
                        <ellipse id="Oval" fill="#61A2FF" cx="36.7563291" cy="2.8880597" rx="4.7943038" ry="2.8880597"></ellipse>
                        <ellipse id="Oval" fill="#3185FC" cx="36.7563291" cy="18.9328358" rx="4.7943038" ry="2.8880597"></ellipse>
                        <polygon id="Rectangle" fill="#3185FC" points="31.9620253 15.4029851 41.5506329 15.4029851 41.5506329 19.2537313 31.9620253 19.2537313"></polygon>
                        <ellipse id="Oval" fill="#61A2FF" cx="36.7563291" cy="15.0820896" rx="4.7943038" ry="2.8880597"></ellipse>
                        <ellipse id="Oval" fill="#3185FC" cx="48.9018987" cy="12.5149254" rx="4.7943038" ry="2.8880597"></ellipse>
                        <polygon id="Rectangle" fill="#3185FC" points="44.1075949 8.98507463 53.6962025 8.98507463 53.6962025 12.8358209 44.1075949 12.8033682"></polygon>
                        <ellipse id="Oval" fill="#61A2FF" cx="48.9018987" cy="9.30597015" rx="4.7943038" ry="2.8880597"></ellipse>
                    </g>
                    <g id="Group-9" transform="translate(14.063291, 0.000000)">
                        <polygon id="Path" fill="#3185FC" points="24.2911392 32.6950185 24.2911392 54.5522388 61.3670886 35.9744677 61.3670886 13.9388115"></polygon>
                        <polygon id="Path-2" fill="#2C77E1" points="-3.90798505e-13 20.2357311 -3.90798505e-13 42.4181521 24.2911392 54.5522388 24.2911392 32.6512525"></polygon>
                        <polygon id="Path-3" fill="#61A2FF" points="0 20.2654441 36.2347272 1.92537313 61.3670886 13.9277511 24.4159696 32.7313433"></polygon>
                        <ellipse id="Oval" fill="#3185FC" cx="11.8259494" cy="18.9328358" rx="4.7943038" ry="2.8880597"></ellipse>
                        <polygon id="Rectangle" fill="#3185FC" points="7.03164557 15.4029851 16.6202532 15.4029851 16.6202532 19.2537313 7.03164557 19.2174126"></polygon>
                        <ellipse id="Oval" fill="#61A2FF" cx="11.8259494" cy="15.0820896" rx="4.7943038" ry="2.8880597"></ellipse>
                        <ellipse id="Oval" fill="#3185FC" cx="24.6107595" cy="24.7089552" rx="4.7943038" ry="2.8880597"></ellipse>
                        <polygon id="Rectangle" fill="#3185FC" points="19.8164557 21.1791045 29.4050633 21.1791045 29.4050633 25.0298507 19.8164557 25.0298507"></polygon>
                        <ellipse id="Oval" fill="#61A2FF" cx="24.6107595" cy="21.5" rx="4.7943038" ry="2.8880597"></ellipse>
                        <ellipse id="Oval" fill="#3185FC" cx="24.6107595" cy="12.5149254" rx="4.7943038" ry="2.8880597"></ellipse>
                        <polygon id="Rectangle" fill="#3185FC" points="19.8164557 8.98507463 29.4050633 8.98507463 29.4050633 12.8358209 19.8164557 12.8098504"></polygon>
                        <ellipse id="Oval" fill="#61A2FF" cx="24.6107595" cy="8.6641791" rx="4.7943038" ry="2.8880597"></ellipse>
                        <ellipse id="Oval" fill="#3185FC" cx="36.7563291" cy="6.09701493" rx="4.7943038" ry="2.8880597"></ellipse>
                        <polygon id="Rectangle" fill="#3185FC" points="31.9620253 2.56716418 41.5506329 2.56716418 41.5506329 6.41791045 31.9620253 6.41791045"></polygon>
                        <ellipse id="Oval" fill="#61A2FF" cx="36.7563291" cy="2.8880597" rx="4.7943038" ry="2.8880597"></ellipse>
                        <ellipse id="Oval" fill="#3185FC" cx="36.7563291" cy="18.9328358" rx="4.7943038" ry="2.8880597"></ellipse>
                        <polygon id="Rectangle" fill="#3185FC" points="31.9620253 15.4029851 41.5506329 15.4029851 41.5506329 19.2537313 31.9620253 19.2537313"></polygon>
                        <ellipse id="Oval" fill="#61A2FF" cx="36.7563291" cy="15.0820896" rx="4.7943038" ry="2.8880597"></ellipse>
                        <ellipse id="Oval" fill="#3185FC" cx="48.9018987" cy="12.5149254" rx="4.7943038" ry="2.8880597"></ellipse>
                        <polygon id="Rectangle" fill="#3185FC" points="44.1075949 8.98507463 53.6962025 8.98507463 53.6962025 12.8358209 44.1075949 12.8033682"></polygon>
                        <ellipse id="Oval" fill="#61A2FF" cx="48.9018987" cy="9.30597015" rx="4.7943038" ry="2.8880597"></ellipse>
                    </g>
                </g>
            </g>
        </g>
    </g>
</svg>