<?xml version="1.0" encoding="UTF-8"?>
<svg width="10px" height="8px" viewBox="0 0 10 8" version="1.1" xmlns="http://www.w3.org/2000/svg" xmlns:xlink="http://www.w3.org/1999/xlink">
    <!-- Generator: Sketch 52.4 (67378) - http://www.bohemiancoding.com/sketch -->
    <title>Path</title>
    <desc>Created with Sketch.</desc>
    <g id="Website" stroke="none" stroke-width="1" fill="none" fill-rule="evenodd">
        <g id="Landingpage" transform="translate(-1108.000000, -5249.000000)" fill="#3185FC">
            <g id="Group-13" transform="translate(274.000000, 5053.000000)">
                <path d="M834.499997,200.500035 L842.292948,200.500035 L839.646465,203.146556 C839.451216,203.341807 839.451216,203.65831 839.646465,203.853561 C839.841713,204.048813 840.158337,204.048813 840.353585,203.853561 L843.853563,200.353534 C844.048812,200.158282 844.048812,199.841655 843.853563,199.646528 L840.353585,196.146501 C840.255961,196.048875 840.127962,196 839.999963,196 C839.872088,196 839.744089,196.048875 839.646465,196.146501 C839.451216,196.341753 839.451216,196.65838 839.646465,196.853507 L842.292948,199.500027 L834.499997,199.500027 C834.223874,199.500027 834,199.723904 834,200.000031 C834,200.276158 834.223874,200.500035 834.499997,200.500035 Z" id="Path"></path>
            </g>
        </g>
    </g>
</svg>