<?xml version="1.0" encoding="UTF-8"?>
<svg width="27px" height="27px" viewBox="0 0 27 27" version="1.1" xmlns="http://www.w3.org/2000/svg" xmlns:xlink="http://www.w3.org/1999/xlink">
    <!-- Generator: Sketch 52.2 (67145) - http://www.bohemiancoding.com/sketch -->
    <title>instagram-black</title>
    <desc>Created with Sketch.</desc>
    <g id="Website" stroke="none" stroke-width="1" fill="none" fill-rule="evenodd">
        <g id="Landingpage-Copy-4" transform="translate(-1162.000000, -9880.000000)" fill="#000000" fill-rule="nonzero">
            <g id="instagram-black" transform="translate(1162.000000, 9880.000000)">
                <path d="M13.500027,0 C9.83361994,0 9.37388587,0.01554075 7.93396744,0.0812401875 C6.49704994,0.146778188 5.51568656,0.375011437 4.656987,0.708759563 C3.76924275,1.05370762 3.01638038,1.51531706 2.265822,2.265822 C1.51531706,3.01638038 1.05370763,3.76924275 0.708759563,4.656987 C0.375011438,5.51568656 0.146778188,6.49704994 0.0812401875,7.93396744 C0.01554075,9.37388587 0,9.83361994 0,13.500027 C0,17.1663801 0.01554075,17.6261141 0.0812401875,19.0660326 C0.146778188,20.5029501 0.375011438,21.4843134 0.708759563,22.343013 C1.05370763,23.2307573 1.51531706,23.9836196 2.265822,24.734178 C3.01638038,25.4846829 3.76924275,25.9462924 4.656987,26.2912944 C5.51568656,26.6249886 6.49704994,26.8532218 7.93396744,26.9187598 C9.37388587,26.9844593 9.83361994,27 13.500027,27 C17.1663801,27 17.6261141,26.9844593 19.0660326,26.9187598 C20.5029501,26.8532218 21.4843134,26.6249886 22.343013,26.2912944 C23.2307573,25.9462924 23.9836196,25.4846829 24.734178,24.734178 C25.4846829,23.9836196 25.9462924,23.2307573 26.2912944,22.343013 C26.6249886,21.4843134 26.8532218,20.5029501 26.9187598,19.0660326 C26.9844592,17.6261141 27,17.1663801 27,13.500027 C27,9.83361994 26.9844592,9.37388587 26.9187598,7.93396744 C26.8532218,6.49704994 26.6249886,5.51568656 26.2912944,4.656987 C25.9462924,3.76924275 25.4846829,3.01638038 24.734178,2.265822 C23.9836196,1.51531706 23.2307573,1.05370762 22.343013,0.708759563 C21.4843134,0.375011437 20.5029501,0.146778188 19.0660326,0.0812401875 C17.6261141,0.01554075 17.1663801,0 13.500027,0 Z M13.500027,2.43242831 C17.1046463,2.43242831 17.5316378,2.44620056 18.9551588,2.51114963 C20.2713953,2.57116837 20.9862101,2.79109463 21.4619136,2.97597431 C22.0920587,3.22087331 22.5417724,3.51341213 23.0141531,3.98584687 C23.4865879,4.45822762 23.7791267,4.90794131 24.0240257,5.53808644 C24.2089054,6.01378987 24.4288316,6.72860475 24.4888504,8.04484125 C24.5537994,9.46836225 24.5675717,9.89535375 24.5675717,13.500027 C24.5675717,17.1046463 24.5537994,17.5316378 24.4888504,18.9551587 C24.4288316,20.2713953 24.2089054,20.9862101 24.0240257,21.4619136 C23.7791267,22.0920587 23.4865879,22.5417724 23.0141531,23.0141531 C22.5417724,23.4865879 22.0920587,23.7791267 21.4619136,24.0240257 C20.9862101,24.2089054 20.2713953,24.4288316 18.9551588,24.4888504 C17.5318521,24.5537994 17.104914,24.5675717 13.500027,24.5675717 C9.895086,24.5675717 9.46820137,24.5537994 8.04484125,24.4888504 C6.72860475,24.4288316 6.01378988,24.2089054 5.53808644,24.0240257 C4.90794131,23.7791267 4.45822763,23.4865879 3.98584688,23.0141531 C3.51346556,22.5417724 3.22087331,22.0920587 2.97597431,21.4619136 C2.79109463,20.9862101 2.57116837,20.2713953 2.51114963,18.9551587 C2.44620056,17.5316378 2.43242831,17.1046463 2.43242831,13.500027 C2.43242831,9.89535375 2.44620056,9.46836225 2.51114963,8.04484125 C2.57116837,6.72860475 2.79109463,6.01378987 2.97597431,5.53808644 C3.22087331,4.90794131 3.51341212,4.45822762 3.98584688,3.98584687 C4.45822763,3.51341213 4.90794131,3.22087331 5.53808644,2.97597431 C6.01378988,2.79109463 6.72860475,2.57116837 8.04484125,2.51114963 C9.46836225,2.44620056 9.89535375,2.43242831 13.500027,2.43242831 Z M13.500027,6.56757169 C9.671301,6.56757169 6.56757169,9.671301 6.56757169,13.500027 C6.56757169,17.328699 9.671301,20.4324283 13.500027,20.4324283 C17.328699,20.4324283 20.4324283,17.328699 20.4324283,13.500027 C20.4324283,9.671301 17.328699,6.56757169 13.500027,6.56757169 Z M13.500027,18 C11.0147068,18 9,15.9852932 9,13.500027 C9,11.0147068 11.0147068,9 13.500027,9 C15.9852932,9 18,11.0147068 18,13.500027 C18,15.9852932 15.9852932,18 13.500027,18 Z M22.3263472,6.293682 C22.3263472,7.18839281 21.6010288,7.91365725 20.706318,7.91365725 C19.8116606,7.91365725 19.0863428,7.18839281 19.0863428,6.293682 C19.0863428,5.39897119 19.8116606,4.67365275 20.706318,4.67365275 C21.6010288,4.67365275 22.3263472,5.39897119 22.3263472,6.293682 Z" id="Instagram"></path>
            </g>
        </g>
    </g>
</svg>