<?xml version="1.0" encoding="UTF-8"?>
<svg width="157px" height="149px" viewBox="0 0 157 149" version="1.1" xmlns="http://www.w3.org/2000/svg" xmlns:xlink="http://www.w3.org/1999/xlink">
    <!-- Generator: Sketch 52.4 (67378) - http://www.bohemiancoding.com/sketch -->
    <title>Group</title>
    <desc>Created with Sketch.</desc>
    <g id="Website" stroke="none" stroke-width="1" fill="none" fill-rule="evenodd">
        <g id="Blog-Pop-Up" transform="translate(-639.000000, -1069.000000)">
            <g id="Group-15" transform="translate(355.000000, 1037.000000)">
                <g id="Oval-2" transform="translate(307.000000, 65.000000)">
                    <g id="Group">
                        <circle id="Oval" fill="#3185FC" fill-rule="nonzero" cx="58" cy="58" r="58"></circle>
                        <g id="Group-6" transform="translate(-23.000000, -33.000000)">
                            <path d="M108.150147,121.411613 C108.318737,122.948774 100.720921,126.914452 94.3747316,129.341548 C89.9936632,131.021355 86.2139474,131.970903 85.9821368,130.892903 C86.1921211,127.439613 85.4552947,124.072903 84.2480737,120.797742 C83.0295632,117.467935 81.3188316,114.231806 79.6344421,111.090065 C71.5677368,96.0555484 63.4950105,81.0153548 55.4268,65.9701935 C51.5439737,58.7385806 47.6603947,51.502 43.7820842,44.2647097 C40.7617737,38.6447742 37.7467316,33.0248387 34.7309368,27.3999355 C33.0804158,24.3206452 31.4253789,21.2427742 29.7748579,18.1634839 C32.6220632,15.4560645 36.3506,12.5151613 40.2206316,13.6151613 C43.0083789,14.4029032 44.6679316,17.0272903 46.0610526,19.4330968 C46.8618526,20.8226452 47.6671684,22.2058065 48.4679684,23.5946452 C50.0409684,26.314129 51.6139684,29.0343226 53.1817,31.7538065 C56.5143526,37.5114194 59.8417368,43.2690323 63.1683684,49.0216774 C72.3549895,64.9106452 81.5416105,80.7989032 90.7289842,96.6928387 C95.7686053,105.406258 100.891016,114.228968 108.150147,121.411613" id="Fill-56" fill="#B26734"></path>
                            <path d="M108.150147,121.411613 C108.318737,122.948774 100.720921,126.914452 94.3747316,129.341548 C95.0694105,127.944194 96.6672474,126.850581 98.1612211,126.038 C100.205368,124.926645 102.548311,123.577548 102.835063,121.369742 C103.0744,119.512516 101.669989,117.785161 100.025489,116.73271 C96.5046789,114.478065 91.5365579,114.448258 87.9879,116.668839 C86.3644737,117.682968 85.0819895,119.137097 84.2480737,120.797742 C83.0295632,117.467935 81.3188316,114.231806 79.6344421,111.090065 C71.5677368,96.0555484 63.4950105,81.0153548 55.4268,65.9701935 C56.4955368,66.3548387 57.5906158,66.6351613 58.7248316,66.7338065 C61.2890474,66.9573548 64.1452842,66.0113548 65.3299263,63.8581935 C66.4167263,61.8930968 65.8853684,59.5149677 65.3254105,57.3589677 C64.6096579,54.5812903 63.8893895,51.8043226 63.1683684,49.0216774 C72.3549895,64.9106452 81.5416105,80.7989032 90.7289842,96.6928387 C95.7686053,105.406258 100.891016,114.228968 108.150147,121.411613" id="Fill-57" fill="#9E5726"></path>
                            <path d="M53.1817,31.7538065 C51.6019263,31.3833548 49.7278737,32.0348387 48.1691737,32.7423871 C46.5991842,33.4506452 44.9983368,34.2227742 43.8475632,35.4554839 C41.4549474,38.0216774 41.8041684,42.4351613 44.5843895,44.6344516 L43.7820842,44.2647097 C40.7617737,38.6447742 37.7467316,33.0248387 34.7309368,27.3999355 C34.7670632,27.1366452 34.8363053,26.8797419 34.9266211,26.6214194 C35.5249632,24.9330968 37.1822579,23.7429677 38.9358895,23.0829677 C41.9863053,21.9347097 45.5748526,22.1398065 48.4679684,23.5946452 C50.0409684,26.314129 51.6139684,29.0343226 53.1817,31.7538065" id="Fill-58" fill="#9E5726"></path>
                            <path d="M68.3908789,14.5256774 C68.1741211,15.5554194 66.6500421,15.4035484 65.8680579,14.9245161 C65.1319842,14.4667742 64.4967632,13.6470968 63.8404684,13.0850323 C63.7335947,12.9934839 63.6259684,12.9019355 63.5138263,12.8110968 C62.1628526,11.6741935 60.7290895,10.6217419 59.1267368,9.8056129 C56.3292053,8.382 52.8957,7.76387097 49.9363526,8.85748387 C48.5710789,9.36774194 47.3427842,10.2314194 46.5058579,11.371871 C44.8515737,13.6272258 45.4469053,15.1636774 46.4930632,17.6085161 C46.5502632,17.7355484 46.6021947,17.8625806 46.6593947,17.9945806 C47.6619,20.3365161 49.0866316,22.2455484 51.5153737,26.6036774 C46.5532737,29.4409677 42.5552947,31.8481935 36.5297263,33.2554839 C35.1381105,30.7630968 33.6968211,27.918 32.2555316,25.5121935 C31.3892526,24.068 30.6343632,22.904129 29.6371263,22.0844516 C28.8528842,21.4372258 27.9143526,21.0043226 26.6559526,20.8112903 C24.3544053,20.46 21.7841684,21.164 20.8689684,23.4129677 C20.1073053,25.2850968 20.7786526,27.4659355 20.1818158,29.3636129 L20.1825684,29.3685806 C20.1396684,29.5154839 20.0839737,29.6531613 20.0237632,29.7915484 C19.1755474,31.7587742 16.9567895,32.8105161 14.9096316,33.6976129 C13.5691947,34.2816774 12.1376895,34.8749677 10.6745737,34.6861935 C8.69063684,34.4314194 7.24558421,32.8303871 6.10911053,31.2804516 C4.55944211,29.1748387 3.20244737,26.9485806 2.05694211,24.6307742 C1.07174737,22.6387097 0.229552632,20.3315484 1.09131579,18.2862581 C2.13521579,15.7853548 4.96887368,14.4802581 7.56695789,13.8855484 C8.47839474,13.6740645 9.44025789,13.5803871 10.3735211,13.6676774 C10.9252,13.7209032 11.4670947,13.835871 11.9796368,14.0253548 C12.8466684,14.3482581 13.6120947,14.8748387 14.4633211,15.2452903 C19.1544737,17.2841935 20.8034895,12.4165161 21.5666579,9.03064516 C21.6313842,8.734 21.6675105,8.37419355 21.7126684,7.99806452 C21.7811579,7.44096774 21.8631947,6.8576129 22.0837158,6.45877419 C22.6880789,5.36587097 24.6675,4.54619355 25.7987053,3.97774194 C28.6617158,2.54703226 31.7956737,1.62019355 34.9604895,0.970129032 C38.7274105,0.195870968 42.6147526,-0.117096774 46.4607,0.220709677 C51.8066421,0.692645161 57.0750632,2.57329032 61.3123789,5.69516129 C63.3986737,7.23374194 65.2328368,9.07748387 66.6425158,11.1965806 C67.0820526,11.8516129 68.5572105,13.730129 68.3908789,14.5256774" id="Fill-59" fill="#BAB9B9"></path>
                            <path d="M142.589063,97.856 C142.501005,104.838516 133.945089,114.164387 133.945089,114.164387 C133.945089,114.164387 110.141611,105.925032 109.270063,106.010194 C108.399268,106.095355 101.861158,109.381871 98.5059263,110.019161 C95.1567158,110.662129 79.4056421,110.139806 78.0396158,109.753032 C76.6683211,109.367677 72.3956316,107.598452 71.0634737,105.543226 C69.7358316,103.48729 70.7089842,102.114065 70.7089842,102.114065 C70.7089842,102.114065 66.1390053,100.690452 65.1372526,98.6025806 C64.1362526,96.5147097 65.5173316,93.986129 65.5173316,93.986129 C65.5173316,93.986129 62.1056526,94.1096129 60.0524737,91.498 C58.0053158,88.8913548 58.4591526,84.9959355 58.0203684,85.0385161 C57.5876053,85.0810968 54.1759263,84.1656129 52.8994632,82.6241935 C51.6282684,81.0827742 50.9456316,76.8800645 51.2993684,75.0781935 C51.6576211,73.2756129 57.5522316,69.9294839 57.5522316,69.9294839 L59.0582474,72.5794194 C59.6264842,72.7327097 77.3178421,67.4065806 78.1239105,67.1702581 C78.1239105,67.1702581 70.9663842,63.6247097 66.5025263,57.7996774 C63.0539684,53.3017419 62.4699263,50.0932903 63.0050474,48.1260645 C63.1969684,47.4142581 63.5318895,46.8670968 63.9322895,46.4817419 C65.4473368,45.0247742 76.7285316,53.1143871 79.1580263,54.975871 C81.5935421,56.8373548 97.8902737,62.7312258 99.5739105,63.8 C101.252279,64.8638065 114.158405,79.1013548 116.017405,80.539871 C116.956689,81.2687097 140.021837,81.1487742 140.021837,81.1487742 C140.021837,81.1487742 140.918221,84.4438065 141.651284,88.569871 C142.181889,91.5384516 142.625189,94.9385161 142.589063,97.856" id="Fill-60" fill="#F4C095"></path>
                            <path d="M142.589063,97.856 C142.501005,104.838516 133.945089,114.164387 133.945089,114.164387 C133.945089,114.164387 110.141611,105.925032 109.270063,106.010194 C108.399268,106.095355 101.861158,109.381871 98.5059263,110.019161 C95.1567158,110.662129 79.4056421,110.139806 78.0396158,109.753032 C76.6683211,109.367677 72.3956316,107.598452 71.0634737,105.543226 C69.7358316,103.48729 70.7089842,102.114065 70.7089842,102.114065 C70.7089842,102.114065 66.1390053,100.690452 65.1372526,98.6025806 C64.1362526,96.5147097 65.5173316,93.986129 65.5173316,93.986129 C65.5173316,93.986129 62.1056526,94.1096129 60.0524737,91.498 C58.0053158,88.8913548 58.4591526,84.9959355 58.0203684,85.0385161 C57.5876053,85.0810968 54.1759263,84.1656129 52.8994632,82.6241935 C51.6282684,81.0827742 50.9456316,76.8800645 51.2993684,75.0781935 C51.6576211,73.2756129 57.5522316,69.9294839 57.5522316,69.9294839 L59.0582474,72.5794194 C59.6264842,72.7327097 77.3178421,67.4065806 78.1239105,67.1702581 C78.1239105,67.1702581 70.9663842,63.6247097 66.5025263,57.7996774 C63.0539684,53.3017419 62.4699263,50.0932903 63.0050474,48.1260645 C64.4056947,50.8469677 65.8981632,53.5231613 67.8008158,55.946 C70.1941842,58.9983226 73.2950263,61.6603226 77.0611947,62.9994839 C80.8394053,64.3429032 84.9969421,64.2740645 89.0340579,64.1910323 C87.0102316,65.0504516 84.9871579,65.909871 82.9633316,66.7692903 C81.9826526,67.185871 81.0019737,67.6024516 80.0085,67.999871 C77.8702737,68.8500645 75.6883947,69.5930968 73.5065158,70.3354194 C67.9761789,72.2196129 62.8056,75.4692258 56.9809842,76.2512903 C55.1024158,76.5053548 54.2624789,78.8998065 55.1189737,80.4972903 C55.9799842,82.0947742 57.9022053,82.9258065 59.7657211,83.2636129 C63.0562263,83.8647097 66.5687579,83.2827742 69.4370368,81.6533548 C69.5958421,82.5603226 69.7546474,83.4616129 69.9074316,84.3685806 C66.5830579,84.0002581 62.3171421,84.1152258 61.0263789,87.0277419 C60.1051579,89.1035484 61.5103211,91.3773548 63.3286789,92.5497419 C65.7702158,94.1230968 68.8974,93.4034839 71.6828895,93.2736129 C72.1833895,93.2501935 72.8013,93.1451613 72.9443,92.6923871 C73.0323579,93.0089032 73.1204158,93.3247097 73.2084737,93.6405161 C72.6266895,93.6972903 72.0456579,93.7547742 71.4638737,93.8115484 C70.6623211,93.8896129 69.8494789,93.9705161 69.0960947,94.2423226 C67.4026737,94.8540645 66.7531526,96.2790968 67.3439684,97.8879355 C68.9004105,102.122581 75.2481053,101.385935 78.9149263,101.471097 C77.9553211,101.655613 76.9949632,101.840129 76.0353579,102.024645 C74.8906053,102.245355 74.1176526,102.551935 74.1394789,103.774 C74.1560368,104.727806 74.7972789,105.673806 75.6251737,106.191871 C76.8783053,106.976065 78.4625947,107.07329 79.9648474,107.147097 C83.3787842,107.313161 86.7927211,107.479935 90.2059053,107.64671 C93.1983684,107.792194 96.5927368,107.781548 99.4429526,106.790129 C103.148158,105.507032 106.183521,101.701032 105.010168,98.1483871 C111.146374,102.47529 118.388195,105.406258 125.939347,106.631161 C128.772253,107.088903 131.881374,107.264194 134.322911,105.834194 C136.394153,104.623484 137.611158,102.467484 138.544421,100.339161 C140.185911,96.5878065 141.229811,92.6093548 141.651284,88.569871 C142.181889,91.5384516 142.625189,94.9385161 142.589063,97.856" id="Fill-61" fill="#EFAD7D"></path>
                            <path d="M66.5808,50.0173548 C65.7739789,49.2658065 65.1417684,48.3496129 64.7391105,47.3496774 C64.8760895,49.0656774 65.9373,50.6936774 67.4990105,51.5836129 C67.2529,52.0406452 67.0067895,52.4983871 66.7606789,52.9554194 C68.2576632,52.1286452 69.4114474,50.7653548 69.9330211,49.2054839 C69.7102421,49.5674194 69.4829474,49.9343226 69.1668421,50.228129 C68.8499842,50.5219355 68.4277579,50.7390968 67.9837053,50.729871 C67.4388,50.7178065 66.9676526,50.3785806 66.5808,50.0173548" id="Fill-62" fill="#EFAD7D"></path>
                            <path d="M86.9251842,62.9909677 C87.1359211,62.4707742 86.9266895,61.866129 86.5488684,61.4374839 C86.1718,61.0088387 85.6494737,60.7207097 85.1376842,60.4418065 C81.6733211,58.5490968 78.2082053,56.6563871 74.7430895,54.7636774 C73.8436947,54.2725806 72.6251842,53.8049032 71.8597579,54.4677419 C71.3991474,54.8672903 71.3299053,55.5549677 71.5391368,56.1113548 C71.7491211,56.6677419 72.1864,57.1183871 72.6327105,57.532129 C76.3921053,61.0201935 81.6507421,63.0285806 86.9251842,62.9909677" id="Fill-63" fill="#F9CAA7"></path>
                            <path d="M110.485563,83.4843226 C111.533979,82.2189677 110.499863,80.4036129 109.440911,79.1460645 C106.182768,75.2754839 102.555084,71.6795484 98.5947368,68.4434194 C96.9810947,67.1248387 95.2462789,65.8332258 93.1840684,65.3123226 C91.1218579,64.7914194 88.6464526,65.2285806 87.3850421,66.8530323 C86.4435,68.0651613 86.3388842,69.7265161 86.7957316,71.1664516 C87.2525789,72.6063871 88.2054105,73.8596774 89.2417842,75.0015484 C93.7094053,79.9217419 100.087205,83.2650323 106.877447,84.2465161 C108.157674,84.4317419 109.688526,84.4466452 110.485563,83.4843226" id="Fill-64" fill="#F9CAA7"></path>
                            <path d="M136.696711,84.1350968 C135.655821,83.2508387 134.097121,83.2621935 132.697979,83.3239355 C127.205274,83.5659355 121.713321,83.8086452 116.220616,84.0513548 C115.107474,85.1045161 115.108979,86.8886452 115.850321,88.2015484 C116.592416,89.5144516 117.916295,90.4391613 119.264258,91.212 C122.703784,93.1834839 126.591126,94.4580645 130.586095,94.9236129 C132.602395,95.1585161 134.881363,95.1095484 136.354263,93.7902581 C137.947584,92.3623871 137.995753,90.0232903 137.933284,87.9517419 C137.891889,86.5827742 137.775984,85.052 136.696711,84.1350968" id="Fill-65" fill="#F9CAA7"></path>
                            <path d="M70.6292053,72.8824516 C68.5910789,73.9909677 69.6342263,77.8785806 70.9897158,79.1567097 C72.4626158,80.5462581 74.4653684,79.7088387 73.3936211,81.6356129 C72.1608105,83.8498065 71.2275474,85.0967097 72.3120895,87.8005806 C73.2581474,90.1595484 74.6723421,91.0622581 77.0559263,91.6477419 C75.2616526,93.6142581 76.0067579,98.1107742 79.2468368,98.2534194 C79.4425211,99.0340645 79.0029842,99.7487097 79.0488947,100.54 C79.1377053,102.046645 80.3848158,104.515613 81.8840579,105.177032 C82.7766789,105.570903 84.8163105,105.88529 85.1136,104.694452 C82.5388474,103.105484 79.6916421,98.8729677 82.3619789,96.1130323 C81.0140158,95.0449677 79.5652,95.128 78.7056947,93.3225806 C78.4400158,92.7633548 78.1276737,92.0692903 78.2353,91.4355484 C78.3369053,90.8387097 79.2558684,90.2149032 79.1700684,89.5790323 C79.0135211,88.4300645 76.6434842,87.5507742 76.1798632,86.1165161 C75.8562316,85.1165806 75.6748474,82.6994194 76.7616474,82.0890968 C75.7501105,81.2154839 74.6444947,80.5370323 74.1108789,79.2156129 C73.4809263,77.6564516 73.9671263,75.7495484 73.2679316,74.2798065 L70.6292053,72.8824516" id="Fill-66" fill="#F9CAA7"></path>
                            <path d="M9.581,15.0657419 C9.22048947,14.5760645 8.56118421,14.3361935 7.92897368,14.3354839 C7.29676316,14.3347742 6.68412105,14.542 6.11136842,14.7939355 C4.91317895,15.3205161 3.81885263,16.0564516 2.89988947,16.9527742 C2.36100526,17.4779355 1.86953684,18.0825806 1.69417368,18.7943871 C1.51956316,19.5061935 1.73180526,20.3414839 2.36853158,20.7573548 C3.20470526,21.3023871 4.35171579,20.9489677 5.24885263,20.4983226 C6.39887368,19.9206452 7.47137368,19.2067097 8.43398947,18.3778065 C8.93223158,17.9491613 9.41090526,17.4758065 9.67808947,16.8910323 C9.94452105,16.3069677 9.96559474,15.5887742 9.581,15.0657419" id="Fill-67" fill="#D3D3D3"></path>
                            <path d="M23.5536053,9.02993548 C24.2716158,9.59625806 25.3403526,9.40109677 26.2457684,9.17470968 C32.8320474,7.52825806 39.4183263,5.88180645 46.0038526,4.23535484 C46.6872421,4.06432258 47.5046,3.75348387 47.5738421,3.08993548 C47.6588895,2.2723871 46.5623053,1.86148387 45.6982842,1.75219355 C38.8237474,0.88 31.6737474,2.04529032 25.5081895,5.04225806 C24.6855632,5.44251613 23.8471316,5.90309677 23.3541579,6.64116129 C22.8611842,7.37922581 22.8431211,8.47070968 23.5536053,9.02993548" id="Fill-68" fill="#D3D3D3"></path>
                            <path d="M29.6371263,22.0844516 C28.8528842,21.4372258 27.9143526,21.0043226 26.6559526,20.8112903 C24.3544053,20.46 21.7841684,21.164 20.8689684,23.4129677 C20.1073053,25.2850968 20.7786526,27.4659355 20.1818158,29.3636129 C18.1873421,23.542129 14.8125421,18.1350968 10.3735211,13.6676774 C10.9252,13.7209032 11.4670947,13.835871 11.9796368,14.0253548 C12.8466684,14.3482581 13.6120947,14.8748387 14.4633211,15.2452903 C19.1544737,17.2841935 20.8034895,12.4165161 21.5666579,9.03064516 C21.6313842,8.734 21.6675105,8.37419355 21.7126684,7.99806452 C24.3559105,12.6911613 26.9938842,17.3906452 29.6371263,22.0844516" id="Fill-69" fill="#A0A0A0"></path>
                            <path d="M63.5138263,12.8110968 C62.1628526,11.6741935 60.7290895,10.6217419 59.1267368,9.8056129 C56.3292053,8.382 52.8957,7.76387097 49.9363526,8.85748387 C48.5710789,9.36774194 47.3427842,10.2314194 46.5058579,11.371871 C44.8515737,13.6272258 45.4469053,15.1636774 46.4930632,17.6085161 C46.3018947,17.4389032 46.1205105,17.2629032 45.9481579,17.0755484 C44.0063684,14.9827097 43.2477158,11.8069032 44.5798737,9.32870968 C45.8006421,7.05987097 48.5635526,5.75122581 51.2564684,5.72354839 C53.9546526,5.69445161 56.5587579,6.78522581 58.7150474,8.31741935 C60.5198579,9.60335484 62.0492053,11.1809677 63.5138263,12.8110968" id="Fill-70" fill="#A0A0A0"></path>
                        </g>
                        <path d="M115.044358,47.4179523 C116.00569,51.9805515 116.183537,57.5079007 115.577898,64 C114.972258,70.4920993 113.383198,76.5745192 110.810716,82.2472597 L127.138584,82.7278058 L133.938776,51.1967256 L115.044358,47.4179523 Z" id="Path-58" fill="#FFFFFF" fill-rule="nonzero"></path>
                    </g>
                </g>
            </g>
        </g>
    </g>
</svg>