<?xml version="1.0" encoding="UTF-8"?>
<svg width="79px" height="51px" viewBox="0 0 79 51" version="1.1" xmlns="http://www.w3.org/2000/svg" xmlns:xlink="http://www.w3.org/1999/xlink">
    <!-- Generator: Sketch 52.4 (67378) - http://www.bohemiancoding.com/sketch -->
    <title>quotes</title>
    <desc>Created with Sketch.</desc>
    <g id="Website" stroke="none" stroke-width="1" fill="none" fill-rule="evenodd" opacity="0.0487118676">
        <g id="Landingpage" transform="translate(-1086.000000, -5431.000000)" fill="#132840">
            <g id="quotes" transform="translate(1086.000000, 5431.000000)">
                <path d="M82.0967238,30.6446437 L67.3798141,30.6446437 L67.3798141,27.1804093 C67.3798141,18.248151 70.2314602,14.0874474 76.3575208,14.0874474 C77.4087286,14.0874474 78.2591623,13.2279748 78.2591623,12.1692758 L78.2591623,1.9165251 C78.2591623,0.857826098 77.4087286,0 76.3575208,0 C68.0147828,0 61.2896643,2.69696574 56.3666164,8.01351175 C51.4794794,13.2905418 49,22.4220265 49,35.151112 L49,61.0834749 C49,62.1421739 49.8553306,63 50.9065384,63 L82.0950915,63 C83.1446671,63 83.9999977,62.1421739 83.9999977,61.0834749 L83.9999977,32.5661083 C84.00163,31.5057627 83.1462994,30.6446437 82.0967238,30.6446437 Z" id="Path"></path>
                <path d="M33.0984448,30.6446437 L18.3822214,30.6446437 L18.3822214,27.1804093 C18.3822214,18.248151 21.2353668,14.0874474 27.3611417,14.0874474 C28.4106683,14.0874474 29.2626945,13.2279748 29.2626945,12.1692758 L29.2626945,1.9165251 C29.2626945,0.857826098 28.4106683,0 27.3611417,0 C18.9469744,0 12.2009505,2.69696574 7.30914469,8.01515825 C2.46140915,13.2954813 0,22.426966 0,35.151112 L0,61.0834749 C0,62.1421739 0.85365848,63 1.90644953,63 L33.0968126,63 C34.1463392,63 34.9999977,62.1421739 34.9999977,61.0834749 L34.9999977,32.5661083 C35.0016299,31.5057627 34.1479714,30.6446437 33.0984448,30.6446437 Z" id="Path"></path>
            </g>
        </g>
    </g>
</svg>