<?xml version="1.0" encoding="UTF-8"?>
<svg width="112px" height="95px" viewBox="0 0 112 95" version="1.1" xmlns="http://www.w3.org/2000/svg" xmlns:xlink="http://www.w3.org/1999/xlink">
    <!-- Generator: Sketch 52.2 (67145) - http://www.bohemiancoding.com/sketch -->
    <title>Group 20</title>
    <desc>Created with Sketch.</desc>
    <g id="Website" stroke="none" stroke-width="1" fill="none" fill-rule="evenodd">
        <g id="Landingpage-Copy-4" transform="translate(-135.000000, -5591.000000)" fill-rule="nonzero">
            <g id="Group-20" transform="translate(135.000000, 5591.000000)">
                <polygon id="Star" fill="#C5FF85" points="109 15 106.171573 15.8284271 107 13 106.171573 10.1715729 109 11 111.828427 10.1715729 111 13 111.828427 15.8284271"></polygon>
                <polygon id="Star-Copy-2" fill="#BD10E0" points="20 94 17.1715729 94.8284271 18 92 17.1715729 89.1715729 20 90 22.8284271 89.1715729 22 92 22.8284271 94.8284271"></polygon>
                <circle id="Oval-Copy" fill="#FF6B7E" cx="3" cy="3" r="3"></circle>
                <g id="Group" transform="translate(15.000000, 9.000000)">
                    <polygon id="Path" fill="#3185FC" points="30.6110831 41.0732839 30.6110831 67.9726147 76.9378846 44.916206 76.9378846 17.7924299"></polygon>
                    <polygon id="Path-2" fill="#2C77E1" points="-2.4158453e-13 25.6843591 -2.4158453e-13 52.8871969 30.6110831 67.9726147 30.6110831 41.106533"></polygon>
                    <polygon id="Path-3" fill="#61A2FF" points="-6.25277607e-13 25.6843591 45.4286381 2.84662615 76.9378846 17.7924299 30.6110831 41.2073566"></polygon>
                    <ellipse id="Oval" fill="#3185FC" cx="15.2274963" cy="23.8723404" rx="5.85520833" ry="3.77777778"></ellipse>
                    <polygon id="Rectangle" fill="#3185FC" points="9.37170309 19.2907801 21.0852635 19.2907801 21.0852635 23.9807647 9.37170309 23.9365306"></polygon>
                    <ellipse id="Oval" fill="#61A2FF" cx="15.2274963" cy="19.3711584" rx="5.85520833" ry="3.77777778"></ellipse>
                    <ellipse id="Oval" fill="#3185FC" cx="30.787913" cy="31.5886525" rx="5.85520833" ry="3.77777778"></ellipse>
                    <polygon id="Rectangle" fill="#3185FC" points="24.9339178 27.0070922 36.6373349 27.0070922 36.6373349 31.6635722 24.9339178 31.6635722"></polygon>
                    <ellipse id="Oval" fill="#61A2FF" cx="30.787913" cy="27.0874704" rx="5.85520833" ry="3.77777778"></ellipse>
                    <ellipse id="Oval" fill="#3185FC" cx="30.787913" cy="15.9952719" rx="5.85520833" ry="3.77777778"></ellipse>
                    <polygon id="Rectangle" fill="#3185FC" points="24.8748326 11.4137116 36.727072 11.4137116 36.727072 16.1018094 24.8748326 16.0701916"></polygon>
                    <ellipse id="Oval" fill="#61A2FF" cx="30.787913" cy="11.4940898" rx="5.85520833" ry="3.77777778"></ellipse>
                    <ellipse id="Oval" fill="#3185FC" cx="46.187913" cy="8.27895981" rx="5.85520833" ry="3.77777778"></ellipse>
                    <polygon id="Rectangle" fill="#3185FC" points="40.3264307 3.69739953 52.0422109 3.69739953 52.0422109 8.35387955 40.3264307 8.35387955"></polygon>
                    <ellipse id="Oval" fill="#61A2FF" cx="46.187913" cy="3.77777778" rx="5.85520833" ry="3.77777778"></ellipse>
                    <ellipse id="Oval" fill="#3185FC" cx="46.187913" cy="23.8723404" rx="5.85520833" ry="3.77777778"></ellipse>
                    <polygon id="Rectangle" fill="#3185FC" points="40.3371225 19.2907801 52.0476337 19.2907801 52.0476337 23.9472602 40.3371225 23.9472602"></polygon>
                    <ellipse id="Oval" fill="#61A2FF" cx="46.187913" cy="19.3711584" rx="5.85520833" ry="3.77777778"></ellipse>
                    <ellipse id="Oval" fill="#3185FC" cx="61.587913" cy="16.1560284" rx="5.85520833" ry="3.77777778"></ellipse>
                    <polygon id="Rectangle" fill="#3185FC" points="55.7285607 11.5744681 67.4530687 11.5744681 67.4530687 16.2642966 55.7285607 16.2247724"></polygon>
                    <ellipse id="Oval" fill="#61A2FF" cx="61.587913" cy="11.6548463" rx="5.85520833" ry="3.77777778"></ellipse>
                </g>
            </g>
        </g>
    </g>
</svg>